<svg width="320" height="320" viewBox="0 0 320 320" fill="none" xmlns="http://www.w3.org/2000/svg">
<defs>
  <linearGradient id="bg" x1="0" y1="0" x2="1" y2="1">
    <stop offset="0%" stop-color="#312E81"/>
    <stop offset="100%" stop-color="#0EA5E9"/>
  </linearGradient>
</defs>
<rect width="320" height="320" rx="32" fill="#0F172A"/>
<rect x="16" y="16" width="288" height="288" rx="28" fill="#111827" stroke="#1E293B"/>
<circle cx="160" cy="130" r="72" fill="url(#bg)" opacity="0.85"/>
<circle cx="160" cy="130" r="66" fill="#0F172A" opacity="0.7"/>
<rect x="108" y="210" width="104" height="66" rx="18" fill="#0B1221" stroke="#1F2937"/>
<rect x="118" y="124" width="84" height="64" rx="20" fill="#0B1221" stroke="#1F2937"/>
<circle cx="140" cy="126" r="12" fill="#0F172A" stroke="#1F2937"/>
<circle cx="180" cy="126" r="12" fill="#0F172A" stroke="#1F2937"/>
<rect x="142" y="170" width="36" height="6" rx="3" fill="#1F2937"/>
<path d="M134 148c6 8 16 12 26 12s20-4 26-12" stroke="#0EA5E9" stroke-width="3" stroke-linecap="round"/>
<rect x="96" y="248" width="128" height="18" rx="9" fill="#111827"/>
<circle cx="96" cy="74" r="24" fill="#7C3AED" opacity="0.4"/>
<circle cx="234" cy="236" r="18" fill="#22D3EE" opacity="0.4"/>
<circle cx="92" cy="232" r="16" fill="#F472B6" opacity="0.35"/>
<rect x="68" y="48" width="120" height="10" rx="5" fill="#1F2937"/>
<rect x="216" y="48" width="36" height="10" rx="5" fill="#1F2937"/>
</svg>

