<svg width="640" height="420" viewBox="0 0 640 420" fill="none" xmlns="http://www.w3.org/2000/svg">
<rect width="640" height="420" rx="32" fill="#0F172A"/>
<rect x="20" y="24" width="600" height="372" rx="26" fill="#0B1221" stroke="#1F2937"/>
<rect x="48" y="72" width="544" height="304" rx="22" fill="#0F172A" stroke="#1E293B"/>
<rect x="72" y="104" width="498" height="52" rx="14" fill="url(#g1)" opacity="0.7"/>
<rect x="96" y="188" width="210" height="170" rx="16" fill="#0B1221" stroke="#1E293B"/>
<rect x="336" y="188" width="210" height="170" rx="16" fill="#0B1221" stroke="#1E293B"/>
<rect x="112" y="212" width="150" height="12" rx="6" fill="#111827"/>
<rect x="112" y="236" width="130" height="12" rx="6" fill="#111827"/>
<rect x="112" y="260" width="120" height="12" rx="6" fill="#111827"/>
<rect x="352" y="212" width="150" height="12" rx="6" fill="#111827"/>
<rect x="352" y="236" width="130" height="12" rx="6" fill="#111827"/>
<rect x="352" y="260" width="120" height="12" rx="6" fill="#111827"/>
<circle cx="526" cy="128" r="10" fill="#22C55E"/>
<circle cx="494" cy="128" r="10" fill="#FACC15"/>
<circle cx="462" cy="128" r="10" fill="#38BDF8"/>
<defs>
<linearGradient id="g1" x1="72" y1="104" x2="570" y2="156" gradientUnits="userSpaceOnUse">
<stop stop-color="#7C3AED" stop-opacity="0.65"/>
<stop offset="1" stop-color="#22D3EE" stop-opacity="0.65"/>
</linearGradient>
</defs>
</svg>

