<svg width="640" height="420" viewBox="0 0 640 420" fill="none" xmlns="http://www.w3.org/2000/svg">
<rect width="640" height="420" rx="32" fill="#0F172A"/>
<rect x="20" y="24" width="600" height="372" rx="26" fill="#0B1221" stroke="#1F2937"/>
<rect x="48" y="76" width="544" height="292" rx="20" fill="#0F172A" stroke="#1E293B"/>
<rect x="68" y="116" width="200" height="40" rx="12" fill="#111827"/>
<rect x="68" y="170" width="160" height="16" rx="8" fill="#111827"/>
<rect x="68" y="200" width="180" height="16" rx="8" fill="#111827"/>
<rect x="68" y="240" width="150" height="16" rx="8" fill="#111827"/>
<rect x="304" y="132" width="284" height="172" rx="18" fill="url(#g)" opacity="0.85"/>
<rect x="320" y="150" width="252" height="138" rx="16" fill="#0F172A" stroke="#1E293B"/>
<rect x="340" y="170" width="90" height="16" rx="8" fill="#111827"/>
<rect x="340" y="200" width="210" height="12" rx="6" fill="#111827"/>
<rect x="340" y="224" width="180" height="12" rx="6" fill="#111827"/>
<rect x="340" y="248" width="140" height="12" rx="6" fill="#111827"/>
<circle cx="564" cy="110" r="12" fill="#22D3EE"/>
<circle cx="534" cy="110" r="12" fill="#A855F7"/>
<circle cx="504" cy="110" r="12" fill="#F472B6"/>
<defs>
<linearGradient id="g" x1="280" y1="120" x2="620" y2="320" gradientUnits="userSpaceOnUse">
<stop stop-color="#2563EB" stop-opacity="0.7"/>
<stop offset="1" stop-color="#06B6D4" stop-opacity="0.7"/>
</linearGradient>
</defs>
</svg>

